<mxfile host="app.diagrams.net" modified="2023-09-11T14:16:39.661Z" agent="Mozilla/5.0 (Linux; Android 10; K) AppleWebKit/537.36 (KHTML, like Gecko) Chrome/116.0.0.0 Safari/537.36 EdgA/116.0.1938.58" version="21.7.4" etag="APJRSNcoqK9uotsQpm66" type="github">
  <diagram name="第 1 页" id="zDoD1VxTZK8emkWLil0x">
    <mxGraphModel>
      <root>
        <mxCell id="0" />
        <mxCell id="1" parent="0" />
      </root>
    </mxGraphModel>
  </diagram>
</mxfile>
